<?xml version="1.0" standalone="no"?>
<!DOCTYPE svg PUBLIC "-//W3C//DTD SVG 1.1//EN" "http://www.w3.org/Graphics/SVG/1.1/DTD/svg11.dtd">
<svg xmlns="http://www.w3.org/2000/svg">
<metadata>Copyright (C) 2019 by original authors @ fontello.com</metadata>
<defs>
<font id="fontello" horiz-adv-x="1000" >
<font-face font-family="fontello" font-weight="400" font-stretch="normal" units-per-em="1000" ascent="850" descent="-150" />
<missing-glyph horiz-adv-x="1000" />
<glyph glyph-name="moon" unicode="&#xe800;" d="M978 165c-1 9-5 16-11 22-14 14-29 17-47 9-48-22-97-33-148-33-65 0-124 16-178 47-55 32-98 75-129 129-32 55-48 114-48 178 0 50 10 97 30 142 20 45 48 85 85 119 15 13 18 29 10 47-7 17-20 26-40 25-66-3-129-17-188-45-60-27-111-62-154-107-43-44-77-97-101-157-25-61-38-124-38-191 0-67 13-132 40-194 26-61 62-115 107-159 44-45 98-81 159-107 62-27 127-40 194-40 98 0 187 26 270 79 82 53 144 123 184 212 4 7 5 16 3 24z m-278-192c-57-26-116-40-179-40-56 0-110 11-162 34-51 22-95 51-132 89-38 37-67 81-89 132-22 52-34 106-34 162 0 94 28 177 84 250 55 74 126 124 213 150-45-72-67-150-67-233 0-79 19-152 58-219 39-68 93-121 160-160 67-39 140-59 220-59 24 0 48 2 71 6-39-48-87-85-143-112z" horiz-adv-x="1000" />

<glyph glyph-name="insta" unicode="&#xe801;" d="M128 850h744c70 0 128-52 128-128v-744c0-76-58-128-128-128h-744c-70 0-128 52-128 128v744c0 76 58 128 128 128l0 0z m601-111c-25 0-45-20-45-45v-108c0-25 20-45 45-45h113c24 0 45 20 45 45v108c0 25-21 45-45 45h-113l0 0z m158-312h-88c8-27 13-56 13-86 0-166-139-301-311-301-172 0-311 135-311 301 0 30 5 59 13 86h-92v-422c0-22 18-40 40-40h696c22 0 40 18 40 40v422h0z m-386 120c-111 0-201-87-201-195 0-107 90-194 201-194 111 0 201 87 201 194 0 108-90 195-201 195z" horiz-adv-x="1000" />

<glyph glyph-name="clean-calendar" unicode="&#xe816;" d="M803 634h-162v60c0 12-10 19-19 19-13 0-19-10-19-19v-60h-203v60c0 12-9 19-19 19s-25-7-25-19v-60h-159c-13 0-19-9-19-18v-610c0-12 10-19 19-19h606c13 0 19 10 19 19v607c3 12-6 21-19 21z m-447-40v-72c0-13 10-19 19-19s19 10 19 19v72h203v-72c0-13 9-19 19-19 12 0 18 10 18 19v72h144v-138h-562v138h140z m-140-569v388h565v-388h-565z" horiz-adv-x="1000" />

<glyph glyph-name="door-in" unicode="&#xe817;" d="M844 438h-135l54 53c9 9 9 22 0 28s-22 9-29 0l-87-88c-3-3-6-9-6-15 0 0 0 0 0 0 0 0 0 0 0 0 0-3 0-7 0-7 0 0 0 0 0 0 0-3 3-3 3-6 0 0 0 0 0 0l90-90c4-4 10-7 16-7 6 0 9 3 16 7 9 9 9 21 0 28l-53 53h131c12 0 22 9 22 22s-10 22-22 22z m-97 175c12 0 22 9 22 21v125c0 13-10 22-22 22h-591c0 0-3 0-3 0-3 0-6 0-9-3 0-3-3-6-6-9 0-3-4-3-4-6 0-4 0-4 0-7v-647c0-9 7-15 13-18l403-169c3 0 6-3 9-3 4 0 10 0 13 3 6 3 9 9 9 19v122h169c13 0 22 9 22 21v119c0 13-9 22-22 22s-22-9-22-22v-97h-147v466c0 9-6 16-12 19l-319 147h475v-107c3-9 13-18 22-18z m-209-54v-584l-360 147v603l360-166z m-60-346c13 0 22 9 22 21v141c0 13-9 22-22 22s-22-9-22-22v-141c0-12 10-21 22-21z" horiz-adv-x="1000" />

<glyph glyph-name="door-out" unicode="&#xe818;" d="M659 397h135l-53-53c-10-10-10-22 0-28s22-10 28 0l87 87c3 3 7 10 7 16 0 0 0 0 0 0 0 0 0 0 0 0 0 3 0 6 0 6 0 0 0 0 0 0 0 3-4 3-4 6 0 0 0 0 0 0l-90 91c-3 3-10 6-16 6s-9-3-15-6c-10-9-10-22 0-28l53-53h-135c-12 0-22-10-22-22s13-22 25-22z m88 216c12 0 22 9 22 21v125c0 13-10 22-22 22h-591c0 0-3 0-3 0-3 0-6 0-9-3 0-3-3-6-6-9 0-3-4-3-4-6 0-4 0-4 0-7v-647c0-9 7-15 13-18l403-169c3 0 6-3 9-3 4 0 10 0 13 3 6 3 9 9 9 19v122h169c13 0 22 9 22 21v119c0 13-9 22-22 22s-22-9-22-22v-97h-147v466c0 9-6 16-12 19l-319 147h475v-107c3-9 13-18 22-18z m-209-54v-584l-360 147v603l360-166z m-60-346c13 0 22 9 22 21v141c0 13-9 22-22 22s-22-9-22-22v-141c0-12 10-21 22-21z" horiz-adv-x="1000" />

<glyph glyph-name="earnings" unicode="&#xe819;" d="M838 616h-675c-44 0-82-38-82-82v-368c0-44 38-82 82-82h671c44 0 82 38 82 82v368c0 44-35 82-78 82z m3-385c-3 0-10 0-13 0-37 0-69-31-69-68 0-4 0-4 0-7h-518c0 3 0 3 0 7 0 37-32 68-69 68-6 0-13 0-16-3v228c7 0 10-3 16-3 37 0 69 31 69 69 0 6 0 12-3 16h525c0-7-4-10-4-16 0-38 32-69 69-69 3 0 10 0 13 0v-222z m-341 272c-75 0-134-69-134-153 0-84 59-153 134-153s134 69 134 153c0 84-59 153-134 153z m53-225h-97v25h35v100l-32-22-12 19 50 41h19v-135h34v-28z" horiz-adv-x="1000" />

<glyph glyph-name="envelope" unicode="&#xe81a;" d="M859 569c0-22-6-41-18-60-13-18-28-34-50-50-100-68-163-112-188-131-3-3-9-6-15-12-10-7-16-13-22-16-7-3-13-9-22-12s-16-10-22-10c-6-3-13-3-19-3h0 0c-6 0-12 0-19 3-6 3-15 6-21 10s-16 9-22 12c-7 3-13 9-22 16s-16 9-16 12c-25 16-59 41-106 72-47 31-72 50-81 56-16 13-32 28-47 47-16 19-22 38-22 53 0 22 6 38 16 53s21 22 43 22h588c19 0 31-6 44-18 15-13 21-29 21-44z m0-119v-319c0-18-6-31-18-43-13-13-28-19-47-19h-588c-18 0-31 6-43 19-16 12-22 28-22 43v319c12-12 25-25 40-34 97-66 163-113 200-138 16-12 28-19 38-25 9-6 22-12 37-19 16-6 32-9 44-9h0 0c13 0 28 3 44 9 15 7 28 13 37 19 10 6 22 16 38 25 47 31 112 78 200 138 15 9 28 22 40 34z" horiz-adv-x="1000" />

<glyph glyph-name="inbox" unicode="&#xe81b;" d="M888 303v-244c0-9-4-15-10-21-6-7-12-10-22-10h-712c-10 0-16 3-22 10-6 6-9 12-9 21v244c0 22 3 41 12 63l119 278c6 9 9 15 19 22 9 3 18 6 28 6h418c10 0 19-3 25-9 10-7 16-13 19-22l119-278c12-19 16-41 16-60z m-260 16h160c0 0 0 3 0 3s0 3 0 3l-107 250h-359l-106-250c0 0 0-3 0-3s0-3 0-3h159l47-97h162l44 97z" horiz-adv-x="1000" />

<glyph glyph-name="info" unicode="&#xe81c;" d="M500 747c-219 0-397-178-397-397 0-219 178-397 397-397s397 178 397 397c0 219-178 397-397 397z m0-753c-197 0-356 159-356 356s159 356 356 356 356-159 356-356-159-356-356-356z m109 144h-71v331c0 12-10 19-19 19h-88c-12 0-18-10-18-19 0-13 9-19 18-19h69v-312h-69c-12 0-18-10-18-19 0-13 9-19 18-19h178c13 0 19 9 19 19 0 9-9 19-19 19z m-178 425h88c12 0 19 9 19 18 0 13-10 19-19 19h-88c-12 0-18-9-18-19-4-9 6-18 18-18z" horiz-adv-x="1000" />

<glyph glyph-name="bulb" unicode="&#xe81d;" d="M500 788c-181 0-328-147-328-329 0-106 50-206 137-265 0 0 4-3 4-3 18-13 21-50 21-57 0 0 0-3 0-3v-106c0-22 13-41 32-50l109-56c6-3 16-7 25-7 9 0 16 4 25 7l113 56c18 9 31 28 31 50v106c0 53 34 72 34 72 3 3 10 3 13 6 75 63 115 154 115 250-3 182-150 329-331 329z m-109-657c0 0 0 0 0 0l222 3c0 0 0 0 0-3 0-22 0-37 0-53h-222v53z m109-162l-109 56h222l-113-56z m175 284c0 0-37-15-53-65h-241c-6 18-18 37-40 50-69 50-116 131-116 221 0 150 122 272 272 272s272-122 272-272c3-84-35-156-94-206z m-147 425c-15 0-28-12-28-28 0-16 13-28 28-28 63 0 138-56 138-138 0-15 12-28 28-28 15 0 28 13 28 28-3 125-100 194-194 194z" horiz-adv-x="1000" />

<glyph glyph-name="list" unicode="&#xe81e;" d="M231 634v-81c0-3 0-6-3-9-3-3-9-6-12-6h-82c-3 0-6 0-9 3 0 6-3 9-3 12v81c0 4 0 7 3 10 3 3 6 3 9 3h82c3 0 6 0 9-3 3-3 6-6 6-10z m0-162v-81c0-3 0-7-3-10-3-3-6-3-9-3h-85c-3 0-6 0-9 3-3 3-3 7-3 10v81c0 3 0 6 3 9 3 3 6 3 9 3h82c3 0 6 0 9-3 3-3 6-6 6-9z m0-163v-81c0-3 0-6-3-9-3-3-6-3-9-3h-85c-3 0-6 0-9 3 0 3-3 6-3 9v81c0 4 0 7 3 10 3 3 6 3 9 3h82c3 0 6 0 9-3 3-3 6-6 6-10z m0-162v-81c0-3 0-7-3-10-3-3-6-3-9-3h-85c-3 0-6 0-9 3-3 3-3 7-3 10v81c0 3 0 6 3 9 3 3 6 7 9 7h82c3 0 6 0 9-4 3-6 6-9 6-12z m647 487v-81c0-3 0-6-3-9-3-3-6-3-9-3h-569c-3 0-6 0-9 3-4 3-4 6-4 9v81c0 4 0 7 4 10s6 3 9 3h566c3 0 6 0 9-3 3-3 6-6 6-10z m0-162v-81c0-3 0-7-3-10-3-3-6-3-9-3h-569c-3 0-6 0-9 3s-4 7-4 10v81c0 3 0 6 4 9s6 3 9 3h566c3 0 6 0 9-3 3-3 6-6 6-9z m0-163v-81c0-3 0-6-3-9-3-3-6-3-9-3h-569c-3 0-6 0-9 3-4 3-4 6-4 9v81c0 4 0 7 4 10s6 3 9 3h566c3 0 6 0 9-3 3-3 6-6 6-10z m0-162v-81c0-3 0-7-3-10-3-3-6-3-9-3h-569c-3 0-6 0-9 3s-4 7-4 10v81c0 3 0 6 4 9 3 3 6 7 9 7h566c3 0 6 0 9-4 3-6 6-9 6-12z" horiz-adv-x="1000" />

<glyph glyph-name="month-calendar" unicode="&#xe81f;" d="M803 634h-162v60c0 12-10 19-19 19-13 0-19-10-19-19v-60h-203v60c0 12-9 19-19 19s-25-7-25-19v-60h-159c-13 0-19-9-19-18v-610c0-12 10-19 19-19h606c13 0 19 10 19 19v607c3 12-6 21-19 21z m-22-328h-115v107h115v-107z m-447-140h-118v103h118v-103z m147 247v-107h-109v107h109z m38-144h109v-103h-109v103z m-38 0v-103h-109v103h109z m0-138v-106h-109v106h109z m38 0h109v-106h-109v106z m0 175v107h109v-107h-109z m147-37h115v-103h-115v103z m-450 325h140v-72c0-13 10-19 19-19s19 10 19 19v72h203v-72c0-13 9-19 19-19 12 0 18 10 18 19v72h144v-138h-562v138z m118-181v-107h-118v107h118z m-118-282h118v-106h-118v106z m450-106v106h115v-106h-115z" horiz-adv-x="1000" />

<glyph glyph-name="pie-chart" unicode="&#xe820;" d="M456 322l253-253c-34-35-71-60-115-78-44-19-91-29-138-29-65 0-125 16-178 47-56 32-97 75-131 132-31 56-47 115-47 178s16 125 47 178c31 56 75 97 131 131 56 31 116 47 178 47v-353z m416 59h-356v357c65 0 125-16 178-47 56-32 97-75 131-132 31-56 47-115 47-178z m-328-62h359c0-50-9-94-28-141-19-44-44-81-78-115l-253 256z" horiz-adv-x="1000" />

<glyph glyph-name="ship" unicode="&#xe821;" d="M184 103c-6-6-12-6-18-6s-13 3-19 6l-50 50 37 38 35-32 34 32c3 3 10 6 16 6 6 0 12-3 19-6l34-32 25 25v119l-84 125c-4 6-7 16-4 22 4 9 10 13 16 16l72 22v118h50v50h103v53h103v-50h103v-50h50v-118l72-22c10-3 13-10 16-16 3-9 3-15-3-22l-85-125v-118l7 6c6 6 12 6 18 6 7 0 13-3 19-6l34-31 35 31c6 6 12 6 19 6 6 0 12-3 18-6l50-50-37-38-35 35-34-35c-6-6-9-6-19-6s-12 3-18 6l-35 35-34-35c-6-6-13-6-19-6-6 0-12 3-19 6l-34 35-28-38c-6-6-13-6-19-6s-12 3-19 6l-34 35-34-35c-7-6-13-6-19-6-6 0-13 3-19 6l-34 35-35-35c-6-6-12-6-18-6s-13 3-19 6l-35 35-34-35c-6-6-12-6-19-6-6 0-12 3-18 6l-19 31-35-31z m632-15c6 6 12 6 18 6 7 0 13-3 19-6l50-50-37-38-35 34-34-34c-6-6-9-6-19-6s-12 3-19 6l-34 34-34-34c-7-6-13-6-19-6-6 0-13 3-19 6l-34 34-25-34c-6-6-13-6-19-6s-12 3-19 6l-34 34-34-34c-7-6-13-6-19-6-6 0-13 3-19 6l-34 34-35-34c-6-6-12-6-18-6s-13 3-19 6l-35 34-34-34c-6-6-12-6-19-6-6 0-12 3-18 6l-19 31-35-34c-6-6-12-6-18-6s-13 3-19 6l-50 50 37 37 35-34 34 34c6 7 13 7 19 7 6 0 12-3 19-7l34-34 34 34c7 7 13 7 19 7 6 0 13-3 19-7l34-34 35 34c6 7 12 7 18 7 7 0 13-3 19-7l35-34 34 34c6 7 12 7 19 7s12-3 18-7l35-34 34 34c6 7 13 7 19 7s12-3 19-7l34-34 34 34c7 7 13 7 19 7 6 0 13-3 19-7l34-34 10 38z m-469 468v-50l153 50 153-50v50h-50v50h-206v-50h-50z" horiz-adv-x="1000" />

<glyph glyph-name="user-circle" unicode="&#xe822;" d="M856 500c22-47 32-97 32-150s-10-103-32-150c-22-47-47-87-81-125-34-34-75-62-125-84s-97-32-150-32c-53 0-103 10-150 32-47 22-91 47-125 81-34 34-62 75-81 125-22 47-31 97-31 150s9 103 31 150c22 47 47 91 81 125 34 34 75 62 125 81 47 22 97 31 150 31s103-9 150-31c47-22 91-47 125-81s63-75 81-122z m-84-341c-6 44-19 82-38 113-18 28-46 47-81 50-19-22-44-38-69-50-28-13-56-19-84-19-31 0-59 6-84 19-28 12-50 28-69 50-34-3-59-22-81-50-19-28-32-66-38-113 31-43 69-78 119-103 47-25 100-37 153-37 56 0 106 12 153 37 50 25 88 60 119 103z m-153 185c31 31 50 72 50 119s-16 84-50 118c-31 32-72 50-119 50s-84-15-119-50c-31-31-50-72-50-118s16-85 50-119c32-31 72-50 119-50s84 15 119 50z" horiz-adv-x="1000" />

<glyph glyph-name="users-1" unicode="&#xe823;" d="M388 284c-122 0-219 100-219 219s100 219 219 219 218-100 218-219-97-219-218-219z m0 397c-97 0-179-81-179-178s82-178 179-178 178 81 178 178-78 178-178 178z m250-706h-500c-13 0-22 9-22 22v144c0 6 3 12 6 15l91 91c9 9 21 9 31 0s9-22 0-31l-85-85v-115h457v137l-85 60c-9 6-12 18-6 28s19 12 28 6l94-66c6-3 9-9 9-18v-172c0-4-9-16-18-16z m15 303c-12 0-22 10-22 22s10 22 22 22c81 0 147 66 147 147s-66 147-147 147c-12 0-22 9-22 22s10 21 22 21c103 0 188-84 188-187 0-109-85-194-188-194z m210-256h-147c-13 0-22 9-22 22s9 22 22 22h125v112l-72 47c-10 6-13 19-6 28 6 10 18 13 28 6l78-56c6-3 9-9 9-19v-143c3-10-6-19-15-19z" horiz-adv-x="1000" />

<glyph glyph-name="bed" unicode="&#xe900;" d="M969 234c0 0 0 4 0 4s0 3 0 3c0 0 0 0 0 0l-131 256v259c0 10-10 19-19 19h-644c-9 0-19-9-19-19v-259l-122-256c0 0 0 0 0 0s0-3 0-3c0 0 0-4 0-4s0 0 0 0v-209c0-9 10-19 19-19h31v-62c0-10 10-19 19-19s19 9 19 19v59h766v-59c0-10 9-19 18-19s19 9 19 19v59h25c9 0 19 10 19 19v212c0 0 0 0 0 0z m-172 504v-222h-31v159c3 9-7 19-16 19h-212c-10 0-19-10-19-19v-162h-44v162c0 9-9 19-19 19h-212c-13 0-19-10-19-19v-162h-31v225h603z m-69-82v-172h-172v172h172z m-465 0h171v-172h-171v172z m-75-181h34v-12c0-10 9-19 19-19h212c10 0 19 9 19 19v12h44v-12c0-10 9-19 18-19h216c9 0 19 9 19 19v12h37l113-222h-838l107 222z m743-434h-862v172h859v-172z" horiz-adv-x="1000" />

<glyph glyph-name="boat1" unicode="&#xe901;" d="M466 247c3-6 9-9 15-9h328c10 0 19 9 19 18 0 13-3 291-334 532-6 3-16 3-22 0-6-7-9-13-6-22 0-3 115-310 0-503-3-4-3-10 0-16z m50 478c228-187 268-391 275-450h-278c75 153 31 353 3 450z m387-616c25 4 47 19 47 44 0 35-25 47-37 47 0 0-4 0-4 0h-462v575c0 3 0 3 0 6 0 0 0 0 0 3 0 0 0 4-3 4 0 0 0 0-3 3 0 0-3 3-3 3s-4 0-4 0c0 0 0 0-3 0 0 0 0 0-3 0 0 0 0 0 0 0s0 0 0 0-3 0-3 0c0 0 0 0-3 0 0 0-3-3-3-3s0 0 0 0-3-3-3-3c0 0 0 0 0-4 0 0 0 0 0 0 0-3-125-325-338-506-6-6-9-12-6-19s9-12 16-12h325v-44h-313c-25 0-50-19-50-47 0-18 16-34 31-40v-22c0-6 3-13 10-16 0 0 72-37 75-91-16-6-28-12-41-21-16-13-31-22-59-22-10 0-19-10-19-19s9-19 19-19c40 0 62 16 78 28s31 22 59 22 44-9 60-22c18-12 40-28 78-28 40 0 62 16 78 28s31 22 59 22c28 0 41-9 60-22s40-28 78-28c40 0 62 16 78 28s31 22 59 22c28 0 44-9 60-22 18-12 40-28 78-28 9 0 18 10 18 19s0 19-9 19c-28 0-44 9-59 22-13 9-28 18-50 25 31 22 75 62 112 118z m-772 172c135 128 232 307 278 407v-407h-278z m600-290c0 0-3-4-3-4-19-6-34-15-47-21-15-13-31-22-59-22s-44 9-59 22c-19 12-41 28-79 28-40 0-62-16-78-28s-31-22-59-22c-28 0-44 9-59 22-19 9-38 25-79 25 0 0-3 0-3 0-6 56-62 97-87 109v25c0 9-6 19-19 19-6 0-12 6-12 9 0 13 12 13 12 13h806c3 0 7-3 7-13s-19-9-19-9c-6 0-13-3-16-10-62-93-147-143-147-143z m-475 134c0-9-7-16-15-16s-16 7-16 16c0 9 7 16 16 16s15-7 15-16z m82 0c0-9-7-16-16-16s-16 7-16 16c0 9 7 16 16 16s16-7 16-16z m78 0c0-9-7-16-16-16s-16 7-16 16c0 9 7 16 16 16s16-7 16-16z m78 0c0-9-7-16-16-16s-15 7-15 16c0 9 7 16 15 16s16-7 16-16z m81 0c0-9-7-16-16-16s-15 7-15 16c0 9 7 16 15 16s16-7 16-16z m78 0c0-9-7-16-15-16s-16 7-16 16c0 9 7 16 16 16s15-7 15-16z m81 0c0-9-7-16-15-16s-16 7-16 16c0 9 7 16 16 16s15-7 15-16z m79 0c0-9-7-16-16-16s-16 7-16 16c0 9 7 16 16 16s16-7 16-16z" horiz-adv-x="1000" />

<glyph glyph-name="boat2" unicode="&#xe902;" d="M234 194h547c10 0 19 9 19 19s-3 206-206 343c-10 7-22 3-28-6s-3-22 6-28c150-103 181-241 187-294h-506c3 188 72 310 128 378 38 47 75 75 100 91v-409c0-10 10-19 19-19s19 9 19 19v446c0 7-3 13-10 16-3 6-9 6-15 3-13-6-281-134-281-540 0-10 9-19 21-19z m641-106h-122c-9 0-19-10-19-19s10-19 19-19h94c-25-41-84-59-97-66h-497c-69 41-97 97-106 129h728c9 0 19 9 19 18s-10 19-19 19h-750c-6 0-9-3-16-6-3-3-6-10-6-16s16-115 135-184c3 3 9 0 12 0h506c0 0 3 0 3 0 7 0 119 31 138 119 0 6 0 12-3 15-6 6-13 10-19 10z m-359 0c-10 0-19-10-19-19s9-19 19-19h118c10 0 19 9 19 19s-9 19-19 19h-118z" horiz-adv-x="1000" />

<glyph glyph-name="certificate1" unicode="&#xe904;" d="M500 656c-100 0-181-81-181-181s81-181 181-181 181 81 181 181c0 100-81 181-181 181z m0-328c-81 0-147 66-147 147s66 147 147 147 147-66 147-147c-3-81-69-147-147-147z m291 241c-7 22-25 40-47 53-16 6-28 22-28 41-3 43-41 78-85 78-6 0-12 0-18-3-19-7-38 0-50 12-16 19-41 28-63 28-25 0-47-9-62-28-13-12-32-19-47-16-7 0-13 4-19 4-44 0-81-35-84-79-4-18-13-31-29-40-25-10-40-28-50-50-6-25-3-50 10-69 9-16 9-34 0-50-13-22-16-47-6-69 6-22 25-40 46-53 16-6 29-22 29-40 3-16 9-32 18-44l-40-172c0-6 0-13 6-19 6-3 12-6 19-3l97 31 71-68c4-4 10-7 13-7 6 0 9 3 12 7 7 6 7 18 0 25l-81 78c-6 3-12 6-19 3l-75-25 29 122c9-7 21-10 34-10 6 0 12 0 19 3 15 4 34-3 47-15 15-19 40-28 62-28 25 0 47 9 63 28 12 12 31 19 46 15 7 0 13-3 19-3 10 0 19 3 28 7l47-207-75 25c-6 3-12 0-19-3l-56-53-37 166c-3 9-13 15-22 12s-16-12-13-22l44-197c0-6 6-12 13-12 3 0 3 0 6 0s9 3 12 6l72 69 97-31c6-4 13 0 19 3s6 12 6 18l-56 251c12 12 22 31 22 50 3 18 12 31 28 40 22 10 40 28 47 53 6 22 6 47-7 69-9 16-9 34 0 50 10 19 13 44 7 69z m-41-138c6-12 9-25 3-40-3-13-12-25-28-28-28-13-47-38-50-69-3-28-31-50-59-44s-63-3-82-25c-18-22-53-22-71 0-16 19-41 28-63 28-6 0-12 0-19-3-28-6-56 16-59 44-3 31-22 56-50 69-13 6-22 15-28 28-3 12-3 28 3 40 16 25 16 60 0 85-6 12-9 25-3 40s15 25 28 32c28 12 47 37 50 68 3 28 31 50 59 44 7 0 13-3 19-3 25 0 47 9 63 28 18 22 53 22 71 0s54-34 82-25c28 6 56-16 59-44 3-31 22-56 50-68 13-7 22-16 28-29 3-12 3-28-3-40-16-28-16-60 0-88z" horiz-adv-x="1000" />

<glyph glyph-name="controls" unicode="&#xe905;" d="M953 825h-906c-13 0-22-9-22-22v-906c0-13 9-22 22-22h906c13 0 22 9 22 22v906c0 13-9 22-22 22z m-22-906h-862v862h862v-862z m-756 453h63v-134c0-13 9-22 21-22 13-3 22 9 22 22v134h63c12 0 22 9 22 22v103c0 12-10 22-22 22h-63v172c0 12-9 22-22 22s-21-10-21-22v-172h-63c-12 0-22-10-22-22v-103c0-13 10-22 22-22z m22 100h125v-56h-125v56z m462-178h63v-56c0-13 9-22 22-22s22 9 22 22v56h62c13 0 22 9 22 22v103c0 12-9 22-22 22h-62v250c0 12-10 22-22 22s-22-10-22-22v-250h-63c-12 0-21-10-21-22v-103c0-13 9-22 21-22z m22 100h125v-56h-125v56z m-265 94h62v-250c0-13 10-22 22-22s22 9 22 22v250h62c13 0 22 9 22 21v100c0 13-9 22-22 22h-62v60c0 12-9 22-22 22s-22-10-22-22v-57h-62c-13 0-22-9-22-21v-104c0-12 9-21 22-21z m25 100h125v-57h-125v57z m-182-447c-46 0-84-38-84-85s38-84 84-84 85 37 85 84c-3 47-41 85-85 85z m0-122c-21 0-40 19-40 40s19 41 40 41c22 0 41-19 41-41s-19-40-41-40z m241 122c-47 0-84-38-84-85s37-84 84-84c47 0 84 37 84 84s-37 85-84 85z m0-122c-22 0-41 19-41 40s19 41 41 41c22 0 41-19 41-41s-19-40-41-40z m244 122c-47 0-85-38-85-85s38-84 85-84c47 0 84 37 84 84s-37 85-84 85z m0-122c-22 0-41 19-41 40s19 41 41 41c22 0 40-19 40-41s-18-40-40-40z" horiz-adv-x="1000" />

<glyph glyph-name="diving" unicode="&#xe906;" d="M838 716l3-550h-122c-22 22-50 37-81 37s-60-12-82-37c-34 0-75-22-75-78 0-50 47-66 72-66h3c22-25 50-38 82-38s62 13 81 38h134c88 0 110 75 110 103v591h-125z m28-28h68v-563c0-6-6-75-84-75h-72v88h91l-3 550z m-122-594c0 15-3 31-10 44h16v-88h-16c7 16 10 28 10 44z m-28 0c0-44-38-81-82-81s-81 37-81 81 38 81 81 81 82-37 82-81z m-182-41c-12 3-28 13-28 35 0 25 10 40 28 46-6-12-9-28-9-40 3-13 3-28 9-41z m-350 263h107c6 0 115 28 115 109 0 0 3 9 28 9 19 0 25-6 29-9 0-81 109-109 115-109h106c13 0 22 6 32 12 22 25 12 75 12 75 0 63-47 110-134 135-69 18-141 21-156 21-4 0-4 0-7 0 0 0-3 0-6 0-12 0-84 0-153-18-88-25-134-72-134-132 0-9-7-53 12-78 9-9 22-15 34-15z m497 28h-100c-9 3-93 25-93 84v0c0 0-4 31-54 31s-53-31-53-34c0-59-84-81-90-84h-107c-3 0-6 0-9 3-9 9-9 40-6 56 0 125 250 128 259 128h6c0 0 4 0 4 0 9 0 259 0 259-128 3-16 3-44-6-56-3 0-7 0-10 0z m-215 84v0 0 0z m290-134c19 22 25 50 25 69 44 3 47 28 47 34v75c0 9-3 16-9 22-13 12-38 15-56 19-54 96-325 96-329 96h-3c-3 0-275 0-328-96-19 0-44-7-56-19-6-6-9-13-9-22v-78c0-3 6-28 46-31 0-19 7-44 25-69 25-28 66-44 119-44 119 0 178 59 203 94 25-31 85-94 203-94 57 0 97 16 122 44z m-625 209c44 63 232 78 300 78h3c69 0 257-12 300-78-3-6-3-12-3-19v-115h22c0-13-3-38-19-56-18-22-53-35-96-35-141 0-188 94-191 97l-13 25-12-25c-3-3-50-97-191-97-47 0-78 13-97 35-15 18-18 43-18 56h22v115c-4 10-4 16-7 19z m644-22c9-3 19-6 22-9 0 0 0-3 0-3v-72c0-3-6-6-22-9v6h-19v87c0 0 3 0 3 0h16z m-687-84v-9c-13 0-19 6-22 6v75c0 0 0 0 0 3 3 3 12 6 22 9l-4-3 16 6c0 0 3 0 3 0v-87h-15z m3-13v0 0 0z" horiz-adv-x="1000" />

<glyph glyph-name="document" unicode="&#xe907;" d="M688 747h-435c-34 0-62-28-62-63v-671c0-35 28-60 62-60h494c34 0 59 25 59 60v612l-118 122z m59-753h-494c-9 0-19 6-19 19v671c0 10 10 19 19 19h403v-109h110v-585c0-6-7-15-19-15z m-247 444c-53-91-156-66-156-66 0-181-6-203 37-244 35-34 119-90 119-90s84 56 119 90c40 41 37 63 37 244 0 0-100-28-156 66z m84-279c-15-15-53-40-71-56l-13-6v141h-106c0 15 0 37 0 62v25h19c28 0 53 13 75 28l12 13v-128h109c0-16 0-29-3-38-3-19-9-28-22-41z m122 325h-406c-9 0-19 10-19 19s10 19 19 19h406c10 0 19-9 19-19s-9-19-19-19z m-225 91h-184c-9 0-19 9-19 19s10 19 19 19h181c10 0 19-10 19-19 3-13-6-19-16-19z" horiz-adv-x="1000" />

<glyph glyph-name="door" unicode="&#xe908;" d="M834 831h-665c0 0-3 0-3 0-7 0-10 0-10-3-3 0-6-3-6-6s-3-3-3-6c0-3 0-3 0-7v-759c0-9 6-16 16-19l446-162c4 0 7 0 7 0 3 0 9 0 12 3 6 3 10 9 10 19v140h200c12 0 21 10 21 22v760c-6 9-15 18-25 18z m-243-912l-403 147v712l403-175v-684z m222 156h-179v544c0 9-6 15-12 19l-350 153h541v-716z m-291 141c12 0 22 9 22 22v134c0 12-10 22-22 22s-22-10-22-22v-134c0-13 9-22 22-22z" horiz-adv-x="1000" />

<glyph glyph-name="handshake" unicode="&#xe909;" d="M916 472c0 137-113 253-253 253-63 0-119-22-166-62-47 40-103 62-166 62-137 0-253-112-253-253 0-81 38-153 100-200-12-13-19-28-19-44s7-31 19-44c13-12 28-18 44-18 3 0 6 0 9 0 0-3 0-7 0-10 0-15 7-31 19-43s28-19 44-19c0 0 0 0 0 0s0 0 0 0c0-16 6-31 19-44s28-19 43-19c10 0 19 3 25 7 3-35 32-60 66-60 16 0 31 6 44 19 12-10 28-19 43-19 32 0 60 22 66 53 6-3 13-3 22-3 16 0 34 6 47 19s19 31 19 47c15 0 34 6 46 19s19 28 19 46c0 0 0 0 0 0 16 0 35 7 47 19 25 25 28 66 3 91v0c75 50 113 125 113 203z m-703-263v0c-4 4-7 10-7 19 0 6 3 13 7 19l50 50c3 3 9 6 18 6 7 0 13-3 19-6 9-9 9-25 0-34l-50-50c-12-13-28-13-37-4z m71-71v0c-3 3-6 9-6 18 0 7 3 13 6 19l50 50c4 3 10 6 19 6s13-3 19-6c9-9 9-25 0-34l-50-50c-13-13-28-13-38-3z m63-63v0c-3 3-6 9-6 19 0 6 3 12 6 19l50 50c3 3 9 6 19 6s12-3 18-6c10-10 10-25 0-35l-50-50c-12-12-28-12-37-3z m109-59c-15 0-28 12-28 28s13 28 28 28 28-13 28-28-12-28-28-28z m332 190c-10-9-29-12-38-3l-87 88c-7 6-19 6-29 0-6-7-6-19 0-28l38-38c0 0 0 0 0 0l50-50c3-3 6-9 6-19 0-6-3-15-9-18-10-10-28-13-38-4l-87 91c-6 6-19 6-28 0-7-6-7-19 0-28l37-38c0 0 0 0 0 0l50-50c10-9 10-25-3-37-9-9-28-13-37-3l-88 87c-6 7-19 7-28 0-6-6-6-18 0-28l66-65c6-7 9-13 9-19 0-16-13-31-31-31-7 0-19 6-25 12 0 6 3 9 3 16 0 34-25 59-56 65 15 25 12 57-10 78-12 13-28 19-47 19 0 16-6 35-18 47-16 16-35 19-54 16 4 18-3 40-18 56-25 25-66 25-88 0l-22-22c-56 41-90 103-90 172 0 119 97 212 212 212 50 0 97-18 138-50l-138-140c-19-22-37-75 6-119 25-25 47-31 69-31 16 0 31 6 38 9l90 91c0 0 10 12 28 12 7 0 16-6 19-9l203-203c19-10 19-25 7-38z m3 94l-38 38c0 0 0 0 0 0l-140 137c-4 3-19 22-47 22v0c0 0 0 0-3 0 0 0 0 0 0 0v0c-35 0-54-25-54-25l-84-84c-6-4-28-13-56 15-31 31-6 63-3 66l147 150c0 0 3 0 3 3 40 41 93 62 150 62 118 0 212-96 212-212 0-69-34-131-87-172z" horiz-adv-x="1000" />

<glyph glyph-name="highfive" unicode="&#xe90a;" d="M409 291c-9 6-21 3-25-7 0 0-9-15-31-15s-31 12-31 15c-3 10-16 13-25 10-13-6-16-19-13-28 7-13 29-38 66-38 34 0 56 22 66 35 6 9 3 21-7 28z m500 240c-3 3-68 116-193 128-88 10-153-6-207-40-3-3-6-3-9-6-3 3-6 6-9 6-53 34-119 47-207 40-125-12-190-121-193-128 0 0-85-150 37-290 94-107 47-169 47-172-6-10-6-19 3-25 3-3 6-3 13-3s9 3 15 6c3 3 69 87-47 219-106 122-37 240-34 247 0 0 59 96 166 109 112 9 162-25 178-34 9-7 12-13 12-16 0 0 0 0 0 0s0 0 0-3 0-6 0-10c0 0 0 0 0 0-3-6-9-18-15-21 0 0-3-4-10 0-3 3-115 56-197 18-46-22-75-53-87-90-13-44-3-97 34-163 0 0 3 0 3-3 0 0 0 0 0 0 0-78 63-141 141-141 34 0 66 13 88 32 9-13 28-28 59-28s50 15 59 28c25-19 57-32 91-32 78 0 141 63 141 141 0 0 0 0 0 0s3 0 3 3c37 63 47 116 34 163-12 37-41 65-87 90-82 41-191-15-197-18s-10-4-10 0c-6 3-12 15-15 21 0 0 0 0 0 0 0 4 0 7 0 10 0 0 0 0 0 0s0 3 0 3 3 9 12 16c16 12 66 46 181 34 107-9 163-106 166-109 0 0 72-125-34-247-116-132-50-216-47-219s9-6 15-6c4 0 10 0 13 3 9 6 9 19 3 25-3 3-47 65 47 172 122 140 37 287 37 290z m-559-334c-56 0-103 47-103 103s47 103 103 103c56 0 103-47 103-103s-44-103-103-103z m300 0c-56 0-103 47-103 103s47 103 103 103c56 0 103-47 103-103s-47-103-103-103z m-91 306c0 0 97 47 163 16 37-19 59-41 69-66s3-56-13-97c-22 50-72 85-128 85-78 0-141-63-141-141 0-31 10-59 25-81 0 0 0 0-3-3 0 0-9-16-31-16s-31 13-31 16c0 0 0 3-3 3 15 22 25 50 25 81 0 78-63 141-141 141-56 0-106-35-128-85-16 38-22 69-13 97s32 50 69 66c66 31 163-16 163-16 18-9 34-6 40-3s13 9 19 13c6-7 9-10 19-13s22-6 40 3z m147-212c-9 3-18 0-25-10 0 0-9-15-31-15s-31 15-31 15c-6 10-16 13-25 7s-13-16-6-25c6-13 31-35 65-35 38 0 60 22 66 38 0 9-3 18-13 25z" horiz-adv-x="1000" />

<glyph glyph-name="mermaid" unicode="&#xe90b;" d="M784 344c-3 6-6 9-12 9-50 13-88-28-109-56-35 56-88 59-116 53-6-3-13-9-13-16 0-59 16-78 32-93 9-13 18-19 18-50 0 0 0 0 0 0 0-10-3-28-12-41-6-6-16-9-25-9-44 0-47 34-47 43v222h100c56 0 78 44 81 66 0 0 0 0 0 3v84c0 22-9 38-15 44-19 16-41 13-41 13-37 0-50-32-53-53v-38c0-9-9-12-13-12h-21v96c-4 88-75 160-163 160-87-3-162-75-162-166v-122c-4-6-4-12-4-18v-241c0-47 29-69 50-75 7-44 22-100 63-144 44-47 103-69 178-69 72 0 131 22 175 69 69 72 72 181 72 213 53 37 47 100 37 128z m-409 390c72 0 131-59 131-131v-87h-40c15 18 25 43 25 72 0 31-13 62-35 81-6 6-15 6-22 0s-6-16 0-22c16-16 25-38 25-59 0-44-37-82-81-82-31 0-59 19-72 47h3c0 0 0 0 0 0 4 0 25 0 38 16 6 6 16 19 16 37v47c0 0 0 6 3 10s9 3 12 3 16 6 16 15c0 10-6 16-16 16-19 0-31-9-37-16-13-15-10-31-10-34v-47c0-19-12-22-22-22h-37c-9 0-19-3-25-6v31c-3 72 56 131 128 131z m-103-181v0c3-12 12-25 19-37h-28c-7 0-13 0-19-3 0 9 3 25 12 34 7 3 10 6 16 6z m137-75c0-6-3-12-9-19s-16-9-28-9c-13 0-22 3-28 9s-10 16-13 22c13-6 28-9 44-9 16 3 25 3 34 6z m313-240c-6-4-9-10-6-16 0 0 6-125-63-200-37-38-87-56-150-56-65 0-119 18-153 59-66 69-59 181-59 184v210c0 9-7 15-16 15s-16-6-16-15v-206c0 0 0-10 0-25-6 6-15 18-15 37v241c0 6 3 22 22 22h37c3-13 6-32 22-47 13-13 31-22 53-22 28 0 44 12 53 22 13 15 16 31 16 43h119c18 0 43 13 43 44v35c0 6 4 18 22 21 3 0 13 0 16-6 3-3 6-9 6-19v-84c0-6-9-37-50-37h-115c-10 0-16-7-16-16v-241c0-22 16-75 78-75 19 0 38 7 50 19 22 25 22 63 22 66 0 0 0 0 0 0 0 40-16 53-28 68-10 13-19 22-22 57 19 0 59-7 78-63 3-6 9-9 16-9s12 3 15 9c0 0 35 69 78 69 0-16 7-59-37-84z" horiz-adv-x="1000" />

<glyph glyph-name="more-users" unicode="&#xe90c;" d="M984 247c0 3 0 3 0 6 0 0 0 0 0 0 0 100-68 188-165 219 44 28 72 75 72 131 0 88-69 156-157 156s-156-68-156-156c0-56 28-103 72-131-9-3-16-6-25-9-28 40-75 68-131 68-53 0-103-28-131-68-10 3-16 6-25 9 43 28 71 75 71 131 0 88-68 156-156 156s-156-68-156-156c0-56 28-103 72-131-97-31-166-119-166-219 0 0 0 0 0 0 0-3 0-3 0-6 0 0 0-3 0-3s0 0 0-3 3-3 3-7c0 0 0 0 0 0 3-3 75-68 241-68 16 0 28 0 41 3-16-41-38-91-38-144 0-6 3-12 6-16s72-68 244-68c166 0 238 65 241 68s6 10 6 16c0 53-19 103-53 144 12 0 25-3 40-3 166 0 238 65 241 68 0 0 0 0 0 0s3 4 3 4c6 3 6 6 6 9 0-3 0 0 0 0z m-356 356c0 60 50 110 110 110s109-50 109-110-50-109-109-109-110 50-110 109z m-128-115c59 0 109-50 109-110s-46-112-109-112-109 50-109 109 50 113 109 113z m-347 115c0 60 50 110 110 110s109-50 109-110-50-109-109-109-110 50-110 109z m-94-340c7 100 94 178 204 178 31 0 62-7 87-19-3-16-6-28-6-44 0-56 28-103 72-131-19-6-35-13-50-22 0 0 0 0 0 0-32-6-69-9-107-9-115-3-178 34-200 47z m441-279c-122 0-184 38-203 50 6 100 94 179 203 179s197-79 203-179c-19-12-81-50-203-50z m134 238c-15 9-31 16-50 22 44 28 72 75 72 131 0 16-3 31-6 44 28 12 56 19 88 19 109 0 196-79 203-179-22-15-85-50-203-50-38 4-72 7-104 13z" horiz-adv-x="1000" />

<glyph glyph-name="open-arms-man" unicode="&#xe90d;" d="M500 438c59 0 109 50 109 109s-50 106-109 106c-59 0-109-50-109-109s50-106 109-106z m0 184c41 0 75-34 75-75s-34-75-75-75c-41 0-75 34-75 75s34 75 75 75z m438-113c-10 10-19 16-32 19-25 3-43-12-47-15 0 0-87-57-168-82-85-22-191-18-191-18s0 0 0 0 0 0 0 0-106-4-191 21c-84 22-168 82-168 82s0 0 0 0c-3 3-25 18-47 15-13 0-22-6-31-18-29-35-10-69-10-69s0-3 3-3 82-91 310-132v-209c0-9 6-16 15-16h119c0 0 0 0 0 0s0 0 0 0h119c9 0 15 7 15 16v206c229 38 307 125 310 132 0 0 0 3 3 3 0 0 19 34-9 68z m-541-393v203c0 9-6 15-13 15-206 32-290 110-300 119-3 6-6 19 7 35 3 3 6 6 9 6 9 0 19-6 25-10 3-3 91-59 178-84 66-19 144-22 181-22-9-40-28-140-28-187 0-44 16-66 28-75h-87z m103 25c-6 6-16 18-16 50 0 28 10 78 16 122 9-44 16-94 16-122 0-32-10-44-16-50z m419 315c-13-12-94-87-300-118-10 0-13-10-13-16v-203h-84c12 9 31 31 28 75 0 47-19 144-28 187 37 0 112 3 181 22 88 25 175 81 181 85 4 3 16 9 22 9 3 0 7 0 10-6 9-16 6-28 3-35z" horiz-adv-x="1000" />

<glyph glyph-name="piggy-bank" unicode="&#xe90e;" d="M316 434c0-19-16-34-35-34s-34 15-34 34c0 19 15 35 34 35s35-16 35-35z m300 100h-122c-10 0-16-6-16-15s6-16 16-16h122c9 0 15 6 15 16s-6 15-15 15z m315-121c0 6-3 12-9 12-6 3-13 0-16-3-25-22-43-28-53-28-25 122-131 212-259 212h-144c-3 10-6 16-12 25-19 32-60 47-113 50-6 0-9 0-12-3-7-3-7-6-7-12v-75c-75-28-134-88-162-166 0 0 0 0 0 0h-31c-25 0-47-19-47-41v-96c0-22 22-41 47-41h28c0 0 3 0 3 0 28-72 87-131 159-156v-28c0-25 16-47 38-47h81c22 0 37 18 37 47v12h69v-12c0-25 16-47 38-47h81c22 0 37 18 37 47v28c0 0 0 0 0 0 88 31 154 109 169 203 69 22 81 87 78 119z m-593 234c34-3 56-16 68-31 0-3 3-3 3-7h-15c-19 0-38-3-56-6v44z m-225-366c-7 0-13 3-13 7v100c0 3 6 6 13 6h21c-3-16-6-35-6-53 0-22 3-41 6-60h-21z m315-218c0-7-3-13-3-13h-81c0 0-3 6-3 13v18c18-3 37-6 56-6h31v-12z m222 0c0-7-3-13-3-13h-81c0 0-3 6-3 13v12h28c22 0 40 3 59 6v-18z m-59 46h-197c-128 0-231 104-231 232s103 231 231 231h22c0-22-10-44-10-44-3-9 0-19 10-22 3 0 3 0 6 0 6 0 12 3 16 10 0 3 9 25 9 56h141c128 0 231-103 231-231s-100-232-228-232z m265 225c0 4 0 7 0 10 0 6 0 12 0 19 10 3 22 6 38 15-3-19-16-34-38-44z" horiz-adv-x="1000" />

<glyph glyph-name="preferences" unicode="&#xe90f;" d="M75 544h100c9-56 56-100 116-100s106 44 115 100h519c9 0 19 9 19 19s-10 18-19 18h-519c-9 57-56 100-115 100s-107-47-116-103h-100c-9 0-19-9-19-19s10-15 19-15z m216 97c43 0 81-38 81-82s-38-81-81-81-82 38-82 81 38 82 82 82z m634-485h-519c-9 57-56 100-115 100s-107-43-116-100h-100c-9 0-19-9-19-18s10-19 19-19h100c9-56 56-100 116-100s106 44 115 100h519c9 0 19 9 19 19s-10 18-19 18z m-634-97c-44 0-82 38-82 82s38 81 82 81 81-38 81-81c0-47-34-82-81-82z m634 297h-100c-9 57-56 100-116 100s-109-43-115-100h-519c-9 0-19-9-19-18s10-19 19-19h519c9-56 56-100 115-100s107 44 116 100h100c9 0 19 9 19 19s-10 18-19 18z m-216-100c-43 0-81 38-81 82s38 81 81 81 82-38 82-81-38-82-82-82z" horiz-adv-x="1000" />

<glyph glyph-name="sailor-hat" unicode="&#xe910;" d="M563 434c-10 0-19-9-19-18 0-19-10-32-25-38v78h22c9 0 18 10 18 19s-9 19-18 19h-22v22c0 9-10 18-19 18s-19-9-19-18v-22h-22c-9 0-18-10-18-19s9-19 18-19h22v-78c-15 6-25 22-25 38 0 9-9 18-18 18s-19-9-19-18c0-44 34-78 78-78 0 0 0 0 0 0s0 0 0 0 0 0 0 0c44 0 78 34 78 78 6 12-3 18-12 18z m365-37c28 50 38 94 25 128-15 41-53 56-53 56s0 0 0 0l-184 88c-141 44-200 40-216 40-16 4-75 7-219-40l-178-88c-3 0-40-12-56-56-13-34-3-78 25-128l56-141v-75c-12-15-40-50-25-90 25-69 156-100 397-100s372 31 397 100c16 40-13 78-25 90v75l56 141z m-65-291c-10-22-63-75-363-75-303 0-356 53-362 75-13 25 18 57 21 57 0 0 0 0 0 0h682c0 0 0 0 0 0 3 0 34-32 22-57z m-700 138h671v-41h-671v41z m225 184c0 91 50 163 112 163s113-72 113-163c0-84-50-150-116-150-63 0-109 63-109 150z m453-150h-250c37 35 59 88 59 150 0 110-69 200-150 200-84 0-150-90-150-200 0-62 22-115 59-150h-250l-53 135c0 0 0 3 0 3-25 40-31 75-22 97 10 25 32 34 35 34l178 84c147 47 200 38 200 38 3 0 3 0 6 0 0 0 0 0 0 0s53 9 197-38l184-87c0 0 25-10 32-35 9-25 0-59-22-100 0 0 0-3 0-3l-53-128z" horiz-adv-x="1000" />

<glyph glyph-name="search" unicode="&#xe911;" d="M722 416c0 159-131 290-291 290s-290-131-290-290c0-160 131-291 290-291s291 131 291 291z m-291-250c-137 0-250 112-250 250s113 250 250 250 250-113 250-250c0-138-112-250-250-250z m-140 250c0 37 15 72 40 100 7 6 7 18 0 28s-18 6-28 0c-34-35-53-78-53-128s22-100 59-132c4-3 10-6 13-6 6 0 9 3 16 6 6 10 6 22 0 29-32 28-47 65-47 103z m550-307l-107 107c-6 6-18 6-28 0-6-7-6-19 0-28l107-107c6-6 6-12 6-18s-3-16-10-22c-6-7-12-10-21-10s-16 3-19 7l-106 106c-7 6-19 6-29 0-6-6-6-19 0-28l107-107c12-12 28-18 47-18 0 0 0 0 3 0 18 0 34 6 47 22 12 12 18 31 21 46 0 22-6 38-18 50z" horiz-adv-x="1000" />

<glyph glyph-name="shield" unicode="&#xe912;" d="M916 828c-13 3-22-3-25-15 0 0-32-69-194-69-159 0-175 62-175 62s0 0 0 0 0 3 0 3 0 4-3 4c0 0 0 0 0 0-6 6-13 9-22 9s-19-9-19-19c0 0 0 0 0 0s-15-62-175-62c-162 0-194 65-194 65-3 19-12 25-25 25-9-3-18-12-18-25v-590c0-3 0-7 3-10 137-265 415-331 428-334 3 0 3 0 6 0 0 0 0 0 0 0s0 0 0 0 0 0 0 0 0 0 0 0c3 0 3 0 6 0 13 3 288 69 429 334 3 3 3 7 3 10v590c-7 13-16 22-25 22z m-28-606c-119-225-350-294-388-306-37 9-269 81-387 306v525c34-25 93-47 190-47 116 0 172 31 197 59 25-28 81-59 197-59 97 0 156 22 191 47v-525z" horiz-adv-x="1000" />

<glyph glyph-name="sleeping" unicode="&#xe913;" d="M813 275h-291c0 3 3 9 3 13 0 31-22 43-34 46 0 0-3 0-3 0h-88l-69 75c-3 4-9 7-12 7h-75c-6 0-10-3-13-7v22c0 10-9 19-18 19h-91c-9 0-19-9-19-19v-450c0-9 10-19 19-19h62c7 0 13 4 16 13l22 56h134l22-22c3-3 10-6 13-6h40c3 0 7 0 10 3l34 25c0 0 0 0 0 0h281l25-53c3-6 10-9 16-9h50c9 0 19 9 19 18v157c0 3 0 3 0 6v72c0 22-10 34-16 41-12 12-34 12-37 12z m-563 106h59l69-75c3-3 10-6 13-6h93c4 0 7-3 7-12s-3-13-10-13h-131l-56 53c-6 6-19 6-25 0s-6-19 0-25l56-50-62-75h-32v178l19 25z m-37-315c-7 0-13-3-16-13l-22-56h-31v416h53v-257c0-9 9-18 19-18h43l69-72h-115z m215-28h-28l-109 115 72 85h450c0 0 0 0 0 0 3 0 12 0 15-7 3-3 6-9 6-15v-53h-218c-3 0-7 0-10-4l-178-121z m385-38l-25 53c-4 6-10 10-16 10h-241l91 62h212v-128h-21z m-485 438c44 0 81 37 81 81s-37 81-81 81-81-37-81-81 34-81 81-81z m0 128c25 0 44-19 44-44s-19-44-44-44-47 16-47 41c0 25 22 47 47 47z m397-175c94 0 172 78 172 172s-78 171-172 171c-6 0-12 0-22 0s-15-6-15-15 3-16 9-19c41-19 62-59 62-103 0-63-50-113-112-113-16 0-28 4-44 10-6 3-15 0-22-6s-6-16 0-22c35-47 85-75 144-75z m72 206c0 34-13 69-34 97 56-16 96-69 96-131 0-75-59-135-134-135-25 0-50 6-72 22 78 0 144 69 144 147z m-303 84c0-12-10-22-22-22s-22 10-22 22c0 12 10 22 22 22s22-10 22-22z m65-118c0-13-9-22-21-22s-22 9-22 22c0 12 9 21 22 21s21-9 21-21z m82 65c0-12-10-22-22-22s-22 10-22 22c0 12 10 22 22 22s22-10 22-22z" horiz-adv-x="1000" />

<glyph glyph-name="umbrella" unicode="&#xe914;" d="M969 266c0 250-200 456-447 465v85c0 12-9 18-19 18s-19-9-19-18v-85c-253-9-453-215-453-465 0 0 0-3 0-3 0-4 0-4 0-7 0-12 10-18 19-18s19 9 19 18c0 50 40 91 90 91s91-41 91-91c0-12 9-18 19-18s19 9 19 18c0 50 40 91 90 91s91-41 91-91v-315c0-41 34-75 75-75s75 34 75 75c0 12-10 18-19 18s-19-9-19-18c0-19-15-35-34-35s-34 16-34 35v315c0 50 40 91 90 91s91-41 91-91c0-12 9-18 19-18s18 9 18 18c0 50 41 91 91 91s91-41 91-91c0-12 9-18 18-18s38 6 38 18c0 3 0 3 0 10 0-3 0-3 0 0z m-135 122c-46 0-87-25-112-63-22 38-66 63-113 63s-87-25-112-63c-22 38-66 63-113 63s-87-25-112-63c-22 38-66 63-113 63-31 0-59-10-81-29 50 191 219 335 422 335s372-144 416-331c-22 15-50 25-82 25z" horiz-adv-x="1000" />
</font>
</defs>
</svg>
